# xmcd CD database file
#
# Track frame offsets:
#	150
#	17352
#	27897
#	44352
#	63047
#	79940
#	95802
#	108047
#	118147
#	138402
#	151372
#	166480
#	190657
#	204425
#
# Disc length: 2900 seconds
#
# Revision: 0
# Processed by: cddbd v1.5.2PL0 Copyright (c) Steve Scherf et al.
# Submitted via: CDex 1.70beta2
#
DISCID=ae0b520e
DTITLE=Steve Argüelles - Blue Moon in a Function Room
DYEAR=1990
DGENRE=Jazz
TTITLE0=Blue of the Night
TTITLE1=Vision on
TTITLE2=bye bye black Bird
TTITLE3=on the Street, where you live
TTITLE4=Take Five
TTITLE5=Baby Elefant Walk
TTITLE6=Ruby
TTITLE7=Lady be good/Johnny b. goode
TTITLE8=Tiger rag
TTITLE9=Pick a Bale of Cotton
TTITLE10=Maria Elena
TTITLE11=Georgia
TTITLE12=Kalinka
TTITLE13=Moon River
EXTD=YEAR: 1990
EXTT0=
EXTT1=
EXTT2=
EXTT3=
EXTT4=
EXTT5=
EXTT6=
EXTT7=
EXTT8=
EXTT9=
EXTT10=
EXTT11=
EXTT12=
EXTT13=
PLAYORDER=
